<?xml version="1.0" encoding="UTF-8" standalone="no"?>
<svg
   viewBox="0 0 15.999999 12.800427"
   version="1.1"
   id="svg4059"
   width="15.999999"
   height="12.800427"
   xmlns="http://www.w3.org/2000/svg"
   xmlns:svg="http://www.w3.org/2000/svg">
  <defs
     id="defs4063" />
  <!--! Font Awesome Pro 6.4.0 by @fontawesome - https://fontawesome.com License - https://fontawesome.com/license (Commercial License) Copyright 2023 Fonticons, Inc. -->
  <path
     d="m 5.2004498,8.8002977 c 2.8725974,0 5.2001762,-1.9700655 5.2001762,-4.4001479 C 10.400626,1.9700675 8.0730472,-4.967804e-8 5.2004498,-4.967804e-8 2.3278525,-4.967804e-8 2.7362258e-4,1.9700675 2.7362258e-4,4.4001498 c 0,0.9650327 0.36751244742,1.857563 0.99003354742,2.5850876 -0.087503,0.235008 -0.21750737,0.442515 -0.35501203,0.617521 -0.12000407,0.1550052 -0.24250822,0.2750093 -0.33251127,0.3575121 -0.0450015,0.040001 -0.0825028,0.072502 -0.10750364,0.092503 -0.0125004,0.01 -0.0225008,0.017501 -0.0275009,0.020001 l -0.005,0.005 v 0 0 c -0.13750487,0.1025034 -0.1975069,0.2825095 -0.14250504,0.4450142 0.05500187,0.162505 0.20750704,0.277509 0.38001288,0.277509 0.54501848,0 1.09503713,-0.140005 1.55255263,-0.31251 0.2300078,-0.0875 0.445015,-0.1850056 0.6325214,-0.285009 0.767526,0.380012 1.6600563,0.597519 2.6150886,0.597519 z M 11.200653,4.4001498 c 0,2.8075952 -2.4775838,4.9226629 -5.4126833,5.1751699 0.6075206,1.8600623 2.6225889,3.2251083 5.0126693,3.2251083 0.955033,0 1.847563,-0.217508 2.617589,-0.59752 0.187506,0.100003 0.400013,0.197506 0.630021,0.285009 0.457516,0.172506 1.007534,0.312511 1.552553,0.312511 0.172506,0 0.327511,-0.112504 0.380013,-0.27751 0.0525,-0.165005 -0.005,-0.345011 -0.145005,-0.447515 v 0 0 l -0.005,-0.005 c -0.005,-0.005 -0.015,-0.01 -0.0275,-0.02 -0.025,-0.02 -0.0625,-0.05 -0.107504,-0.0925 -0.09,-0.0825 -0.212507,-0.202507 -0.332511,-0.357512 -0.137505,-0.175006 -0.267509,-0.385013 -0.355012,-0.617521 0.622521,-0.725024 0.990033,-1.6175523 0.990033,-2.5850803 0,-2.320079 -2.122572,-4.2226435 -4.815163,-4.3876491 0.01,0.1275043 0.015,0.2575087 0.015,0.3875131 z"
     id="path4057"
     style="fill:#e7e7e7;fill-opacity:1;stroke-width:0.0250008" />
</svg>
