<?xml version="1.0" encoding="UTF-8" standalone="no"?>
<svg
   viewBox="0 0 14.000801 16"
   version="1.1"
   id="svg3065"
   width="14.000801"
   height="16"
   xmlns="http://www.w3.org/2000/svg"
   xmlns:svg="http://www.w3.org/2000/svg">
  <defs
     id="defs3069" />
  <!--! Font Awesome Pro 6.4.0 by @fontawesome - https://fontawesome.com License - https://fontawesome.com/license (Commercial License) Copyright 2023 Fonticons, Inc. -->
  <path
     d="m 7.0016231,0 c 0.553125,0 1,0.446875 1,1 v 0.940625 l 0.46875,-0.46875 c 0.29375,-0.29375 0.768748,-0.29375 1.05937,0 0.290621,0.29375 0.293746,0.76875 0,1.059375 L 7.9984981,4.0625 V 6.259375 L 9.9172381,5.140625 10.470361,3.075 c 0.10625,-0.4 0.51875,-0.6375 0.91875,-0.53125 0.4,0.10625 0.6375,0.51875 0.53125,0.91875 l -0.1625,0.603125 0.7375,-0.43125 c 0.478125,-0.278125 1.090625,-0.115625 1.36875,0.359375 0.278125,0.475 0.11875,1.090625 -0.359375,1.36875 l -0.790625,0.4625 0.678125,0.18125 c 0.4,0.10625 0.6375,0.51875 0.53125,0.91875 -0.10625,0.4 -0.51875,0.6375 -0.91875,0.53125 L 10.889111,6.890625 8.9859981,8 10.889111,9.109375 13.004736,8.54375 c 0.4,-0.10625 0.8125,0.13125 0.91875,0.53125 0.10625,0.4 -0.13125,0.8125 -0.53125,0.91875 l -0.678125,0.18125 0.790625,0.4625 c 0.478125,0.278125 0.6375,0.890625 0.359375,1.36875 -0.278125,0.478125 -0.890625,0.6375 -1.36875,0.359375 l -0.7375,-0.43125 0.1625,0.603125 c 0.10625,0.4 -0.13125,0.8125 -0.53125,0.91875 -0.4,0.10625 -0.8125,-0.13125 -0.91875,-0.53125 L 9.9172381,10.859375 8.0016231,9.740625 V 11.9375 l 1.531244,1.53125 c 0.293747,0.29375 0.293747,0.76875 0,1.059375 -0.293746,0.290625 -0.768744,0.29375 -1.059369,0 l -0.46875,-0.46875 V 15 c 0,0.553125 -0.446875,1 -1,1 -0.553125,0 -1,-0.446875 -1,-1 v -0.940625 l -0.46875,0.46875 c -0.29375,0.29375 -0.76875,0.29375 -1.059375,0 -0.290625,-0.29375 -0.29375,-0.76875 0,-1.059375 l 1.53125,-1.53125 V 9.740625 l -1.91875,1.11875 -0.553125,2.065625 c -0.10625,0.4 -0.51875,0.6375 -0.91875,0.53125 -0.4,-0.10625 -0.6375,-0.51875 -0.53125,-0.91875 l 0.1625,-0.603125 -0.74375,0.428125 c -0.478125,0.278125 -1.09062436,0.115625 -1.36874906,-0.359375 -0.278125,-0.475 -0.11562499,-1.090625 0.3593746,-1.36875 l 0.79062446,-0.4625 -0.67812456,-0.18125 c -0.3999996,-0.10625 -0.6374995,-0.51875 -0.5312495,-0.91875 0.1062499,-0.4 0.5187496,-0.6375 0.9187492,-0.53125 L 3.1109981,9.10625 5.0172481,8 3.1141231,6.890625 0.99849824,7.45625 C 0.59849854,7.5625 0.18599894,7.325 0.07974904,6.925 c -0.10625,-0.4 0.1312499,-0.8125 0.5312495,-0.91875 L 1.2891231,5.825 0.49849864,5.3625 C 0.02037405,5.084375 -0.13900096,4.471875 0.13912404,3.996875 0.41724874,3.521875 1.0297481,3.359375 1.5078731,3.6375 l 0.7375,0.43125 -0.1625,-0.603125 c -0.10625,-0.4 0.13125,-0.8125 0.53125,-0.91875 0.4,-0.10625 0.8125,0.13125 0.91875,0.53125 l 0.553125,2.065625 1.915625,1.115625 v -2.2 L 4.4703731,2.53125 c -0.29375,-0.29375 -0.29375,-0.76875 0,-1.059375 0.29375,-0.290625 0.76875,-0.29375 1.059375,0 l 0.46875,0.46875 V 1 c 0,-0.553125 0.446875,-1 1,-1 z"
     id="path3063"
     style="stroke-width:0.03125" />
</svg>
