<?xml version="1.0" encoding="UTF-8"?>
<svg width="16" height="16" version="1.1" viewBox="0 0 16 16" xmlns="http://www.w3.org/2000/svg">
 <!--! Font Awesome Pro 6.4.2 by @fontawesome - https://fontawesome.com License - https://fontawesome.com/license (Commercial License) Copyright 2023 Fonticons, Inc. -->
 <path d="m8.0007 13.24c3.8599 0 6.9883-2.5414 6.9883-5.678 0-3.1365-3.1283-5.678-6.9883-5.678-3.8599 0-6.9883 2.5414-6.9883 5.678 0 1.2311 0.48317 2.3695 1.3021 3.3003-0.051866 0.6688-0.3112 1.2639-0.58418 1.717-0.15014 0.25114-0.30301 0.45314-0.41493 0.58963-0.057326 0.06825-0.101 0.12011-0.13376 0.1556-0.016378 0.01638-0.027298 0.03003-0.035488 0.03821l-0.00819 0.0081c-0.12557 0.12557-0.16106 0.3112-0.092813 0.47498 0.068245 0.16379 0.22657 0.27025 0.40401 0.27025 0.78345 0 1.5724-0.24295 2.2275-0.52685 0.62512-0.27298 1.1574-0.59782 1.4823-0.83532 0.86807 0.31392 1.829 0.48863 2.8417 0.48863zm-3.4941-6.5515a0.87353 0.87353 0 1 1 0 1.7471 0.87353 0.87353 0 1 1 0-1.7471zm3.4941 0a0.87353 0.87353 0 1 1 0 1.7471 0.87353 0.87353 0 1 1 0-1.7471zm2.6206 0.87353a0.87353 0.87353 0 1 1 1.7471 0 0.87353 0.87353 0 1 1-1.7471 0z" fill="#e0e0e0" stroke-width=".027298"/>
</svg>
