<?xml version="1.0" encoding="UTF-8" standalone="no"?>
<svg
   viewBox="0 0 16 14.012175"
   version="1.1"
   id="svg1041"
   width="16"
   height="14.012175"
   xmlns="http://www.w3.org/2000/svg"
   xmlns:svg="http://www.w3.org/2000/svg">
  <defs
     id="defs1045" />
  <!--! Font Awesome Pro 6.4.0 by @fontawesome - https://fontawesome.com License - https://fontawesome.com/license (Commercial License) Copyright 2023 Fonticons, Inc. -->
  <path
     d="M 11.333333,3.3333333 C 11.333333,4.85 9.3027778,7.5527778 8.4111111,8.666667 8.1972222,8.933333 7.8,8.933333 7.5888889,8.666667 6.6972222,7.5527778 4.6666667,4.85 4.6666667,3.3333333 4.6666667,1.4916667 6.1583333,0 8,0 c 1.8416667,0 3.333333,1.4916667 3.333333,3.3333333 z m 0.222223,2.2333334 C 11.652778,5.375 11.741667,5.1833333 11.822222,4.9944444 11.836111,4.9611111 11.85,4.925 11.863889,4.8916667 L 15.086111,3.6027778 C 15.525,3.4277778 16,3.75 16,4.2222222 v 7.5222218 c 0,0.272223 -0.166667,0.516667 -0.419444,0.619445 l -4.025,1.608333 z m -7.7333338,-1.725 c 0.066667,0.3916666 0.2,0.7861111 0.3555556,1.1527777 C 4.2583333,5.1833333 4.3472222,5.375 4.4444444,5.5666667 V 12.55 L 0.91388889,13.963889 C 0.475,14.138889 0,13.816667 0,13.344444 V 5.8222222 C 0,5.55 0.16666667,5.3055556 0.41944444,5.2027778 L 3.825,3.8416667 Z M 9.1055556,9.222222 C 9.4916667,8.738889 10.097222,7.9527778 10.666667,7.0833333 v 6.9249997 l -5.3333337,-1.525 V 7.0833333 c 0.5694445,0.8694445 1.175,1.6555557 1.5611111,2.1388887 0.5694445,0.711111 1.6416667,0.711111 2.2111112,0 z M 8,4.2222222 A 1.1111111,1.1111111 0 1 0 8,2 1.1111111,1.1111111 0 1 0 8,4.2222222 Z"
     id="path1039"
     style="fill:#8ff0af;fill-opacity:1;stroke-width:0.0277778" />
</svg>
