<?xml version="1.0" encoding="UTF-8" standalone="no"?>
<svg
   viewBox="0 0 16 14.930534"
   version="1.1"
   id="svg4751"
   width="16"
   height="14.930534"
   xmlns="http://www.w3.org/2000/svg"
   xmlns:svg="http://www.w3.org/2000/svg">
  <defs
     id="defs4755" />
  <!--! Font Awesome Pro 6.4.0 by @fontawesome - https://fontawesome.com License - https://fontawesome.com/license (Commercial License) Copyright 2023 Fonticons, Inc. -->
  <path
     id="path3569"
     style="fill:#e7e7e7;fill-opacity:1;stroke-width:0.0186285"
     d="m 15.852346,8.498109 c 0.05961,0.162068 0.0093,0.342765 -0.119222,0.458262 l -0.806615,0.733963 c 0.02049,0.154617 0.03167,0.312959 0.03167,0.473164 0,0.160205 -0.01118,0.318548 -0.03167,0.473164 l 0.806615,0.733963 c 0.128536,0.115497 0.178833,0.296194 0.119222,0.458262 -0.08197,0.221679 -0.180697,0.434044 -0.29433,0.638958 l -0.08755,0.150891 c -0.122948,0.204913 -0.260799,0.39865 -0.41169,0.581209 -0.109908,0.134126 -0.292468,0.178834 -0.456399,0.126674 l -1.037608,-0.329724 c -0.249622,0.191873 -0.525324,0.352078 -0.819654,0.473164 l -0.232857,1.063687 c -0.03726,0.16952 -0.167656,0.303645 -0.339039,0.331588 -0.257073,0.04285 -0.521598,0.0652 -0.791711,0.0652 -0.270114,0 -0.534638,-0.02235 -0.791712,-0.0652 -0.171382,-0.02794 -0.301782,-0.162068 -0.339039,-0.331588 l -0.23286,-1.063687 C 9.7235665,13.348973 9.4478643,13.188768 9.1982424,12.996895 l -1.035745,0.331587 C 7.9985665,13.380642 7.8160069,13.334071 7.7060989,13.201808 7.5552078,13.019249 7.4173568,12.825512 7.2944087,12.620599 L 7.2068546,12.469708 C 7.093221,12.264794 6.9944898,12.052429 6.9125243,11.83075 6.8529132,11.668682 6.9032101,11.487985 7.0317469,11.372488 l 0.8066143,-0.733963 c -0.020491,-0.156479 -0.031668,-0.314822 -0.031668,-0.475027 0,-0.160205 0.011177,-0.318547 0.031668,-0.473164 L 7.0317469,8.956371 C 6.9032101,8.840874 6.8529132,8.660177 6.9125243,8.498109 6.9944898,8.27643 7.093221,8.064065 7.2068546,7.859152 L 7.2944086,7.708261 C 7.4173567,7.503347 7.5552077,7.30961 7.7060988,7.127051 7.8160068,6.992926 7.9985664,6.948218 8.1624973,7.000377 L 9.2001052,7.330102 C 9.4497272,7.138228 9.7254291,6.978023 10.01976,6.856938 L 10.252616,5.79325 c 0.03726,-0.169519 0.167657,-0.303645 0.339039,-0.331588 0.257073,-0.04471 0.521598,-0.06706 0.791712,-0.06706 0.270113,0 0.534638,0.02235 0.791711,0.0652 0.171383,0.02794 0.301782,0.162068 0.339039,0.331587 l 0.232857,1.063688 c 0.29433,0.121085 0.570032,0.28129 0.819654,0.473164 l 1.037608,-0.329725 c 0.163931,-0.05216 0.34649,-0.0056 0.456399,0.126674 0.15089,0.18256 0.288741,0.376296 0.411689,0.58121 l 0.08755,0.150891 c 0.113634,0.204913 0.212366,0.417278 0.294331,0.638958 z m -4.468979,3.15567 a 1.490281,1.490281 0 1 0 0,-2.980562 1.490281,1.490281 0 1 0 0,2.980562 z M 8.0020297,0 C 3.5844053,0 0.00405964,2.90864 0.00405964,6.498351 c 0,1.409016 0.55296119,2.711825 1.49022226,3.777178 -0.05936,0.76543 -0.3561111,1.446521 -0.66853139,1.965139 -0.0499872,0.08435 -0.1031477,0.168695 -0.15938337,0.253048 h -0.009336 c -0.003124,0.0062 -0.006273,0.0094 -0.009397,0.01562 -0.0468631,0.07186 -0.0968138,0.143726 -0.14992533,0.215583 -0.10934712,0.149962 -0.22496744,0.290551 -0.3530598,0.421768 -0.14058918,0.143713 -0.18434034,0.356111 -0.10623524,0.543563 0.0781051,0.187452 0.25933379,0.309309 0.46240706,0.309309 0.15933441,0 0.31863267,-0.0093 0.47796707,-0.02496 0.006248,0 0.0156577,-0.0032 0.021906,-0.0032 0.1405891,-0.0125 0.2749059,-0.03432 0.4123708,-0.05931 0.024994,-0.0062 0.05,-0.0094 0.074993,-0.01562 0.5561084,-0.109348 1.0934609,-0.296849 1.5652156,-0.503047 0.718567,-0.31242 1.3246885,-0.684189 1.6964688,-0.955995 0.7107253,0.257023 1.4764887,0.430749 2.2787796,0.50982 A 5.3865685,4.7810947 0 0 1 6.1676565,11.291141 C 5.8537905,11.219279 5.5498883,11.130735 5.2589515,11.025339 4.7903208,10.856632 4.2685897,10.931625 3.8655673,11.2253 v 0.0031 c -0.2593088,0.187452 -0.6998352,0.462359 -1.2309498,0.709171 0.1749554,-0.459258 0.309321,-0.97789 0.3530598,-1.54337 C 3.0189194,9.988066 2.887678,9.588167 2.6189965,9.285119 1.891057,8.460329 1.503679,7.498096 1.503679,6.498351 c 0,-2.483742 2.6024682,-4.998732 6.4983507,-4.998732 3.7824953,0 6.3453333,2.370742 6.4913333,4.781868 a 5.3865685,4.7810947 0 0 1 1.396191,1.290017 C 15.960989,7.222251 16,6.8641 16,6.498351 16,2.90864 12.419654,0 8.0020297,0 Z" />
</svg>
