<?xml version="1.0" encoding="UTF-8" standalone="no"?>
<svg
   viewBox="0 0 16 16"
   version="1.1"
   id="svg2053"
   width="16"
   height="16"
   xmlns="http://www.w3.org/2000/svg"
   xmlns:svg="http://www.w3.org/2000/svg">
  <defs
     id="defs2057" />
  <!--! Font Awesome Pro 6.4.0 by @fontawesome - https://fontawesome.com License - https://fontawesome.com/license (Commercial License) Copyright 2023 Fonticons, Inc. -->
  <path
     d="m 1.803125,6.03125 0.29375,0.5125 C 2.35625,6.996875 2.78125,7.33125 3.284375,7.475 L 5.09375,7.990625 C 5.63125,8.14375 6,8.634375 6,9.19375 v 1.246875 c 0,0.34375 0.19375,0.65625 0.5,0.809375 0.30625,0.153125 0.5,0.465625 0.5,0.809375 v 1.21875 c 0,0.4875 0.465625,0.840625 0.934375,0.70625 0.503125,-0.14375 0.89375,-0.546875 1.021875,-1.05625 l 0.0875,-0.35 c 0.13125,-0.528125 0.475,-0.98125 0.946875,-1.25 l 0.253125,-0.14375 C 10.7125,10.91875 11,10.41875 11,9.88125 V 9.621875 C 11,9.225 10.840625,8.84375 10.559375,8.5625 L 10.4375,8.440625 C 10.15625,8.159375 9.775,8 9.378125,8 H 8.03125 C 7.684375,8 7.340625,7.909375 7.0375,7.7375 L 5.959375,7.121875 C 5.825,7.04375 5.721875,6.91875 5.671875,6.771875 c -0.1,-0.3 0.034375,-0.625 0.31875,-0.765625 L 6.175,5.9125 C 6.38125,5.809375 6.621875,5.790625 6.840625,5.865625 l 0.725,0.240625 C 7.821875,6.190625 8.103125,6.09375 8.25,5.871875 8.396875,5.653125 8.38125,5.3625 8.2125,5.159375 L 7.7875,4.65 C 7.475,4.275 7.478125,3.728125 7.796875,3.359375 L 8.2875,2.7875 C 8.5625,2.465625 8.60625,2.00625 8.396875,1.640625 l -0.075,-0.13125 C 8.2125,1.503125 8.10625,1.5 7.996875,1.5 c -2.9,0 -5.359375,1.903125 -6.19375,4.53125 z M 14.5,8 C 14.5,6.85 14.2,5.76875 13.675,4.828125 L 12.875,5.15 C 12.384375,5.346875 12.13125,5.89375 12.296875,6.39375 L 12.825,7.978125 C 12.934375,8.303125 13.2,8.55 13.53125,8.63125 l 0.909375,0.228125 C 14.478125,8.578125 14.496875,8.290625 14.496875,8 Z M 0,8 A 8,8 0 1 1 16,8 8,8 0 1 1 0,8 Z"
     id="path2051"
     style="stroke-width:0.03125" />
</svg>
