<?xml version="1.0" encoding="UTF-8" standalone="no"?>
<svg
   viewBox="0 0 14.000814 16"
   version="1.1"
   id="svg1547"
   width="14.000814"
   height="16"
   xmlns="http://www.w3.org/2000/svg"
   xmlns:svg="http://www.w3.org/2000/svg">
  <defs
     id="defs1551" />
  <!--! Font Awesome Pro 6.4.0 by @fontawesome - https://fontawesome.com License - https://fontawesome.com/license (Commercial License) Copyright 2023 Fonticons, Inc. -->
  <path
     d="m 7.0016239,0 c 0.553125,0 1,0.446875 1,1 v 0.940625 l 0.46875,-0.46875 c 0.29375,-0.29375 0.7687496,-0.29375 1.0593746,0 0.290625,0.29375 0.29375,0.76875 0,1.059375 L 7.9984989,4.0625 V 6.259375 L 9.9172485,5.140625 10.470375,3.075 c 0.10625,-0.4 0.51875,-0.6375 0.91875,-0.53125 0.4,0.10625 0.6375,0.51875 0.53125,0.91875 l -0.1625,0.603125 0.7375,-0.43125 C 12.9735,3.35625 13.586,3.51875 13.864125,3.99375 14.14225,4.46875 13.982875,5.084375 13.50475,5.3625 L 12.714125,5.825 13.39225,6.00625 c 0.4,0.10625 0.6375,0.51875 0.53125,0.91875 -0.10625,0.4 -0.51875,0.6375 -0.91875,0.53125 L 10.889125,6.890625 8.9859989,8 10.889125,9.109375 13.00475,8.54375 c 0.4,-0.10625 0.8125,0.13125 0.91875,0.53125 0.10625,0.4 -0.13125,0.8125 -0.53125,0.91875 l -0.678125,0.18125 0.790625,0.4625 c 0.478125,0.278125 0.6375,0.890625 0.359375,1.36875 -0.278125,0.478125 -0.890625,0.6375 -1.36875,0.359375 l -0.7375,-0.43125 0.1625,0.603125 c 0.10625,0.4 -0.13125,0.8125 -0.53125,0.91875 -0.4,0.10625 -0.8125,-0.13125 -0.91875,-0.53125 L 9.9172485,10.859375 8.0016239,9.740625 V 11.9375 l 1.5312496,1.53125 c 0.29375,0.29375 0.29375,0.76875 0,1.059375 -0.29375,0.290625 -0.7687496,0.29375 -1.0593746,0 l -0.46875,-0.46875 V 15 c 0,0.553125 -0.446875,1 -1,1 -0.553125,0 -1,-0.446875 -1,-1 v -0.940625 l -0.46875,0.46875 c -0.29375,0.29375 -0.76875,0.29375 -1.059375,0 -0.290625,-0.29375 -0.29375,-0.76875 0,-1.059375 l 1.53125,-1.53125 V 9.740625 l -1.91875,1.11875 -0.553125,2.065625 c -0.10625,0.4 -0.51875,0.6375 -0.91875,0.53125 -0.4,-0.10625 -0.6375,-0.51875 -0.53125,-0.91875 l 0.1625,-0.603125 -0.74375,0.428125 c -0.4781249,0.278125 -1.09062489,0.115625 -1.36874989,-0.359375 -0.27812504,-0.475 -0.11562504,-1.090625 0.359375,-1.36875 l 0.79062489,-0.4625 -0.67812489,-0.18125 c -0.4,-0.10625 -0.63750004,-0.51875 -0.53125,-0.91875 0.10625,-0.4 0.51875,-0.6375 0.91875,-0.53125 L 3.1109989,9.10625 5.0172489,8 3.1141239,6.890625 0.99849901,7.45625 c -0.4,0.10625 -0.8125,-0.13125 -0.91875,-0.53125 -0.10625004,-0.4 0.13125,-0.8125 0.53125,-0.91875 L 1.2891239,5.825 0.49849901,5.3625 C 0.02037397,5.084375 -0.13900103,4.471875 0.13912401,3.996875 0.41724901,3.521875 1.029749,3.359375 1.5078739,3.6375 l 0.7375,0.43125 -0.1625,-0.603125 c -0.10625,-0.4 0.13125,-0.8125 0.53125,-0.91875 0.4,-0.10625 0.8125,0.13125 0.91875,0.53125 l 0.553125,2.065625 1.915625,1.115625 v -2.2 L 4.4703739,2.53125 c -0.29375,-0.29375 -0.29375,-0.76875 0,-1.059375 0.29375,-0.290625 0.76875,-0.29375 1.059375,0 l 0.46875,0.46875 V 1 c 0,-0.553125 0.446875,-1 1,-1 z"
     id="path1545"
     style="fill:#f6f5f4;fill-opacity:1;stroke-width:0.03125" />
</svg>
