<?xml version="1.0" encoding="UTF-8"?>
<svg width="16" height="16" version="1.1" viewBox="0 0 16 16" xmlns="http://www.w3.org/2000/svg">
 <!--! Font Awesome Pro 6.4.2 by @fontawesome - https://fontawesome.com License - https://fontawesome.com/license (Commercial License) Copyright 2023 Fonticons, Inc. -->
 <path d="m2.4837 2.6346c-0.26077-0.21685-0.62584-0.26626-0.93602-0.12078-0.31018 0.14548-0.50507 0.45566-0.50507 0.79603v8.7837c0 0.34037 0.19763 0.65055 0.50507 0.79603 0.30743 0.14548 0.67251 0.09882 0.93602-0.12078l4.7075-3.9225v-2.2893zm5.5859 2.432v7.027c0 0.34037 0.19763 0.65055 0.50507 0.79603 0.30743 0.14548 0.67251 0.09882 0.93602-0.12078l5.2702-4.3919c0.20038-0.16744 0.31567-0.41448 0.31567-0.67525s-0.11529-0.50781-0.31567-0.67525l-5.2702-4.3919c-0.26077-0.21685-0.62584-0.26626-0.93602-0.12078-0.31018 0.14548-0.50507 0.45566-0.50507 0.79603z" fill="#e0e0e0" stroke-width=".027449"/>
</svg>
