<?xml version="1.0" encoding="UTF-8"?>
<svg width="16" height="12.8" version="1.1" viewBox="0 0 16 12.8" xmlns="http://www.w3.org/2000/svg">
 <!--! Font Awesome Pro 6.4.0 by @fontawesome - https://fontawesome.com License - https://fontawesome.com/license (Commercial License) Copyright 2023 Fonticons, Inc. -->
 <path d="m5.2004 8.8003c2.8726 0 5.2002-1.9701 5.2002-4.4001 0-2.4301-2.3276-4.4001-5.2002-4.4001-2.8726 0-5.2002 1.9701-5.2002 4.4001 0 0.96503 0.36751 1.8576 0.99003 2.5851-0.087503 0.23501-0.21751 0.44252-0.35501 0.61752-0.12 0.15501-0.24251 0.27501-0.33251 0.35751-0.045002 0.040001-0.082503 0.072502-0.1075 0.092503-0.0125 0.01-0.022501 0.017501-0.027501 0.020001l-5e-3 5e-3c-0.1375 0.1025-0.19751 0.28251-0.14251 0.44501 0.055002 0.1625 0.20751 0.27751 0.38001 0.27751 0.54502 0 1.095-0.14 1.5526-0.31251 0.23001-0.0875 0.44502-0.18501 0.63252-0.28501 0.76753 0.38001 1.6601 0.59752 2.6151 0.59752zm6.0002-4.4001c0 2.8076-2.4776 4.9227-5.4127 5.1752 0.60752 1.8601 2.6226 3.2251 5.0127 3.2251 0.95503 0 1.8476-0.21751 2.6176-0.59752 0.18751 0.1 0.40001 0.19751 0.63002 0.28501 0.45752 0.17251 1.0075 0.31251 1.5526 0.31251 0.17251 0 0.32751-0.1125 0.38001-0.27751 0.0525-0.165-5e-3 -0.34501-0.145-0.44752l-5e-3 -5e-3c-5e-3 -5e-3 -0.015-0.01-0.0275-0.02-0.025-0.02-0.0625-0.05-0.1075-0.0925-0.09-0.0825-0.21251-0.20251-0.33251-0.35751-0.1375-0.17501-0.26751-0.38501-0.35501-0.61752 0.62252-0.72502 0.99003-1.6176 0.99003-2.5851 0-2.3201-2.1226-4.2226-4.8152-4.3876 0.01 0.1275 0.015 0.25751 0.015 0.38751z" stroke-width=".025001"/>
</svg>
